<svg xmlns="http://www.w3.org/2000/svg" viewBox="0 0 383.39 101.85"><defs><style>.cls-1,.cls-2{fill-rule:evenodd;}.cls-2{fill:red;}</style></defs><title>APC</title><g id="Layer_2" data-name="Layer 2"><g id="svg2"><path id="path57" class="cls-1" d="M298.2,78.05a3.11,3.11,0,1,1,3.11,3.07,3.06,3.06,0,0,1-3.11-3.07m3.11,2.56a2.55,2.55,0,1,0-2.49-2.56,2.47,2.47,0,0,0,2.49,2.56m-.65-.78h-.53V76.29h1.34c.84,0,1.25.31,1.25,1a.91.91,0,0,1-.91,1l1,1.56h-.6l-.93-1.54h-.62v1.54l.64-2c.46,0,.86,0,.86-.57s-.39-.52-.77-.52h-.73v1.09h.64l-.64,2"/><path id="path51" class="cls-2" d="M65.94,99.24,52.87,75.94h47.25L76.39,25.71,41.61,99.24H0L54.48,0H98.31l54.08,99.24H65.94"/><path id="path53" class="cls-2" d="M152.59,41.59h51.86c13.07,0,18.3-.81,18.3-10.05,0-8.84-4.22-9.84-17.69-9.84H152.39L140.73,0H213.9c34.58,0,47.45,15.07,47.45,31.14,0,15.47-11.87,32.54-49.86,32.54H194.2V99.24H152.39V41.59h.2"/><path id="path55" class="cls-2" d="M369.71,93.21c-12.47,5.83-27.95,8.64-44.43,8.64-49.86,0-66.95-27.72-66.95-50.62,0-28.93,25.33-51.23,69-51.23C343.17,0,357,2.41,368.7,6.83V35.56c-12.06-6.43-22.52-9.24-34.78-9.24-20.91,0-38,9.44-38,24.51,0,14.86,17.49,24.51,38.4,24.51,12.06,0,21.91-2.41,35.39-8.64V93.21"/><path id="path2401" class="cls-1" d="M374.12,8.58a4.64,4.64,0,1,1,4.65,4.56,4.56,4.56,0,0,1-4.65-4.56m4.65,3.8a3.68,3.68,0,0,0,3.7-3.8,3.72,3.72,0,1,0-7.43,0,3.68,3.68,0,0,0,3.73,3.8m-1-1.16H377V6h2c1.24,0,1.86.46,1.86,1.49a1.37,1.37,0,0,1-1.37,1.45L381,11.22h-.9l-1.39-2.28h-.92v2.28l.95-3c.68,0,1.29,0,1.29-.86,0-.65-.6-.77-1.15-.77H377.8V8.27h.95l-.95,3"/></g></g></svg>